<svg t="1692329497520" class="icon" viewBox="0 0 1163 1024" version="1.1" xmlns="http://www.w3.org/2000/svg" p-id="1488" width="128" height="128"><path d="M466.535444 1009.321842c-88.290579-28.092457-193.637292-99.326901-226.746259-153.505211-16.052832-26.085853-18.059437-36.118873-9.029718-53.175007 18.059437-34.112269 57.188216-25.082551 112.369827 26.085852 27.089155 25.082551 74.24435 57.188216 106.350015 72.237747 97.320297 45.148591 249.822205 41.135383 331.08967-8.026417l32.105665-20.06604-20.066041-32.105665c-39.128779-65.214632-34.112269-69.22784 93.307089-66.217934 135.445774 4.013208 134.442472 2.006604 84.277371 133.43917-27.089155 71.234444-39.128779 91.300485-56.184914 93.307089-11.036322 2.006604-21.069343 0-21.069343-5.016511 0-4.013208-7.023114-16.052832-14.046228-26.085852-13.042926-17.056135-15.04953-17.056135-47.155195 2.006604-84.27737 49.161799-268.884944 67.221236-365.201939 37.122175zM271.89485 745.453408c-160.528325-2.006604-249.822205-7.023114-258.851924-14.046228-10.03302-9.029718-13.042926-58.191518-13.042926-219.723145 0-181.597667 2.006604-209.690124 17.056135-221.729748 13.042926-11.036322 62.204726-13.042926 250.825507-10.033021l235.775977 3.009906 74.24435 77.254257 75.247652 76.250954-4.013208 144.475492c-6.019812 166.548137-9.029718 173.571251-86.283974 169.558043-25.082551-2.006604-156.515117-4.013208-290.957589-5.01651z m61.201424-105.346713c12.039624-10.03302 17.056135-40.132081 22.072644-121.399546 8.026416-143.47219 5.01651-147.485398-133.439169-147.485398-131.432566 0-131.432566 0-131.432566 139.458982 0 77.254256 4.013208 112.369827 13.042926 119.392942 7.023114 6.019812 51.168404 13.042926 97.320297 15.04953 47.155195 1.003302 92.303787 4.013208 101.333505 5.01651 8.026416 1.003302 22.072645-4.013208 31.102363-10.03302z" fill="#d81e06" p-id="1489" data-spm-anchor-id="a313x.search_index.0.i4.3cf43a81E0msTW" class="selected"></path><path d="M107.353317 625.057164c-13.042926-12.039624-8.026416-220.726447 6.019812-230.759466 7.023114-5.01651 59.19482-8.026416 120.396244-5.016511l107.353317 4.013209v238.785883H227.749561c-63.208028 0-117.386337-3.009906-120.396244-7.023115z m93.307089-113.373129c0-47.155195-4.013208-80.264162-10.03302-80.264162-5.01651 0-10.03302 9.029718-10.033021 20.06604 0 14.046228-7.023114 20.066041-22.072644 21.069343l-23.075947 2.006604 23.075947 4.013208c20.066041 4.013208 22.072645 10.03302 22.072644 59.19482 0 30.099061 5.01651 54.17831 10.033021 54.178309 6.019812 0 10.03302-33.108967 10.03302-80.264162z m88.290579 29.095759l27.089154-2.006604-29.095759-4.013208c-28.092457-4.013208-28.092457-6.019812-24.079248-54.17831 3.009906-27.089155 1.003302-49.161799-3.009906-49.161799-5.01651 0-8.026416 37.122175-8.026417 83.274068 1.003302 45.148591 4.013208 70.231142 6.019813 55.181612 3.009906-22.072645 10.03302-28.092457 31.102363-29.095759zM799.631718 664.185944l-48.158498-48.158498 3.009906-100.330203 3.009906-99.326901h401.320812l3.009906 139.458982c2.006604 105.346713-1.003302 141.465586-10.03302 148.488701-7.023114 4.013208-78.257558 8.026416-158.521721 8.026416H846.786913l-47.155195-48.158497z m256.845319-189.624084c-18.059437-2.006604-48.158497-2.006604-65.214632 0-18.059437 2.006604-4.013208 4.013208 32.105665 4.013208s50.165101-2.006604 33.108967-4.013208zM940.094002 318.046743c-73.241048-125.412754-241.795789-209.690124-379.248167-191.630687l-47.155196 6.019812 19.062739 33.108967c11.036322 19.062739 17.056135 40.132081 13.042926 50.165101-6.019812 16.052832-17.056135 17.056135-113.373129 11.036323-58.191518-4.013208-110.363223-11.036322-115.379734-16.052833s7.023114-51.168404 29.095759-109.359921C378.244865 16.052832 388.277885 0 406.337322 0c13.042926 0 27.089155 10.03302 35.115571 26.085853 11.036322 20.066041 20.066041 25.082551 41.135383 20.06604 171.564647-34.112269 328.079764 5.01651 441.452893 111.366526 118.389639 111.366525 145.478794 203.670312 59.19482 203.670312-11.036322 0-28.092457-17.056135-43.141987-43.141988z" fill="#2aa515" p-id="1490" data-spm-anchor-id="a313x.search_index.0.i0.3cf43a81E0msTW" class=""></path></svg>